<?xml version="1.0" encoding="UTF-8"?>
<svg width="20px" height="20px" viewBox="0 0 20 20" version="1.1" xmlns="http://www.w3.org/2000/svg" xmlns:xlink="http://www.w3.org/1999/xlink">
    <g id="Icon/refresh" stroke="none" stroke-width="1" fill="none" fill-rule="evenodd" fill-opacity="0.4">
        <path d="M8.82780453,18.9983774 C3.94395926,18.9062696 0,14.9044871 0,10 C0,5.037 4.037,1 9,1 C13.962,1 18,5.037 18,10 L20,10 L17,13 L14,10 L16,10 C16,6.14 12.86,3 9,3 C5.14,3 2,6.14 2,10 C2,13.859 5.14,17 9,17 L9.82942712,17 C10.3817119,17 10.8294271,17.4477153 10.8294271,18 C10.8294271,18.5522847 10.3817119,19 9.82942712,19 L8.82942712,19 L8.82780453,18.9983774 Z" id="Combined-Shape-Copy" fill="#45494E"></path>
    </g>
</svg>
